<?xml version="1.0" standalone="no"?>
<!DOCTYPE svg PUBLIC "-//W3C//DTD SVG 20010904//EN"
 "http://www.w3.org/TR/2001/REC-SVG-20010904/DTD/svg10.dtd">
<svg version="1.0" xmlns="http://www.w3.org/2000/svg"
 width="700.000000pt" height="700.000000pt" viewBox="0 0 700.000000 700.000000"
 preserveAspectRatio="xMidYMid meet">
<metadata>
Created by potrace 1.14, written by Peter Selinger 2001-2017
</metadata>
<g transform="translate(0.000000,700.000000) scale(0.100000,-0.100000)"
fill="#000000" stroke="none">
<path d="M1760 6122 c-7 -3 -10 -346 -10 -1021 l0 -1017 -435 0 c-281 1 -436
-3 -438 -9 -2 -5 -3 -136 -3 -290 l1 -280 2625 -3 2625 -2 0 287 c0 159 -2
290 -6 293 -4 3 -200 5 -436 5 l-428 -1 -5 1021 -5 1020 -1737 0 c-956 0
-1742 -1 -1748 -3z m2901 -581 c3 -1 5 -66 5 -146 l0 -145 -1166 0 -1166 0 0
144 -1 145 36 3 c28 2 2269 1 2292 -1z m-580 -595 c0 -6 2 -70 2 -143 2 -110
0 -132 -13 -135 -8 -2 -402 -3 -875 -3 l-860 1 -1 140 c0 76 1 142 3 145 6 13
1743 7 1744 -5z"/>
<path d="M875 2482 l-290 -727 -1 -322 c0 -220 4 -341 12 -383 44 -212 201
-380 419 -446 57 -18 172 -18 2485 -19 2322 0 2428 1 2485 18 194 60 345 207
407 397 19 60 21 91 23 405 l3 340 -35 90 c-19 50 -41 104 -48 120 -27 62 -59
143 -261 650 -113 286 -215 539 -225 562 l-19 42 -580 0 c-319 0 -581 -3 -581
-7 -1 -4 -3 -20 -4 -37 -5 -54 -16 -106 -30 -146 -16 -45 -69 -144 -88 -164
-129 -140 -231 -200 -378 -223 -30 -4 -340 -7 -689 -7 -683 1 -687 1 -805 55
-63 28 -152 94 -195 143 -76 89 -136 226 -144 332 l-3 50 -584 2 -584 1 -290
-726z m997 -760 c64 -32 114 -82 143 -144 35 -76 31 -181 -10 -256 -137 -250
-501 -182 -543 100 -20 134 61 264 195 314 55 20 157 14 215 -14z m1174 -5
c176 -90 215 -323 76 -462 -71 -71 -165 -100 -262 -80 -72 15 -108 35 -154 85
-54 60 -79 122 -79 200 0 128 69 224 198 277 49 21 162 10 221 -20z m1155 6
c109 -48 171 -144 171 -265 0 -216 -226 -355 -420 -257 -142 71 -201 248 -128
390 30 60 91 114 158 142 55 22 156 18 219 -10z m1173 -2 c102 -50 162 -143
165 -259 2 -60 -2 -76 -31 -132 -143 -276 -539 -179 -550 134 -4 111 82 228
199 272 54 20 159 13 217 -15z"/>
</g>
</svg>
