<?xml version="1.0" encoding="utf-8"?>
<!-- Generator: Adobe Illustrator 16.0.0, SVG Export Plug-In . SVG Version: 6.00 Build 0)  -->
<!DOCTYPE svg PUBLIC "-//W3C//DTD SVG 1.1//EN" "http://www.w3.org/Graphics/SVG/1.1/DTD/svg11.dtd">
<svg version="1.1" id="Layer_1" xmlns="http://www.w3.org/2000/svg" xmlns:xlink="http://www.w3.org/1999/xlink" x="0px" y="0px"
	 width="1024px" height="1024px" viewBox="0 0 1024 1024" enable-background="new 0 0 1024 1024" xml:space="preserve">
<path fill="#4E342E" d="M642.987,480l-38.399,39.253C573.865,549.974,554.666,576,554.666,640h-85.334v-21.333
	c0-47.36,19.2-90.027,49.921-120.747l52.905-53.76c15.787-15.36,25.174-36.693,25.174-60.16c0-47.36-38.399-85.333-85.332-85.333
	c-47.13,0-85.334,38.205-85.334,85.333h-85.334c0-94.257,76.41-170.667,170.668-170.667c94.256,0,170.666,76.41,170.666,170.667
	C682.666,421.547,667.307,455.253,642.987,480 M554.666,810.667h-85.334v-85.334h85.334 M512,85.333
	C276.359,85.333,85.333,276.358,85.333,512c0,235.642,191.025,426.667,426.667,426.667c235.641,0,426.666-191.025,426.666-426.667
	C938.666,276.053,746.666,85.333,512,85.333z"/>
</svg>
