<?xml version="1.0" encoding="utf-8"?>
<!-- Generator: Adobe Illustrator 16.0.0, SVG Export Plug-In . SVG Version: 6.00 Build 0)  -->
<!DOCTYPE svg PUBLIC "-//W3C//DTD SVG 1.1//EN" "http://www.w3.org/Graphics/SVG/1.1/DTD/svg11.dtd">
<svg version="1.1" id="Layer_1" xmlns="http://www.w3.org/2000/svg" xmlns:xlink="http://www.w3.org/1999/xlink" x="0px" y="0px"
	 width="1024px" height="1024px" viewBox="0 0 1024 1024" enable-background="new 0 0 1024 1024" xml:space="preserve">
<path fill="#EF476F" d="M853.333,554.667H682.666c0,46.933-38.399,85.333-85.333,85.333H426.666
	c-46.934,0-85.333-38.4-85.333-85.333H170.666L85.333,768v85.333c0,46.934,38.4,85.334,85.333,85.334h682.667
	c46.934,0,85.333-38.4,85.333-85.334V768 M256,853.333c-37.974,0-57.174-46.08-30.294-72.96s72.96-7.68,72.96,30.294
	C298.666,834.134,279.467,853.333,256,853.333 M426.666,853.333c-37.973,0-57.173-46.08-30.293-72.96s72.96-7.68,72.96,30.294
	C469.333,834.134,450.133,853.333,426.666,853.333 M597.333,853.333c-37.974,0-57.174-46.08-30.294-72.96
	c26.881-26.88,72.961-7.68,72.961,30.294C640,834.134,620.8,853.333,597.333,853.333 M768,853.333
	c-37.974,0-57.174-46.08-30.294-72.96s72.96-7.68,72.96,30.294C810.666,834.134,791.466,853.333,768,853.333 M768,426.667V128H256
	v298.667H128V512h768v-85.333 M341.333,213.333h341.333V256H341.333 M341.333,298.667h256v42.667h-256"/>
</svg>
